<?xml version="1.0" encoding="UTF-8" standalone="no"?>
<!DOCTYPE svg PUBLIC "-//W3C//DTD SVG 1.1//EN" "http://www.w3.org/Graphics/SVG/1.1/DTD/svg11.dtd">
<svg version="1.1" xmlns="http://www.w3.org/2000/svg" xmlns:xlink="http://www.w3.org/1999/xlink" preserveAspectRatio="xMidYMid meet" viewBox="0 0 128 128" width="128" height="128"><defs><path d="M55.13 40.53C62.7 63.48 59.41 92.45 55.13 96.09C50.86 99.74 22.78 87.53 15.21 64.58C7.65 41.62 6.24 13.3 13.29 9.8C20.34 6.29 47.57 17.58 55.13 40.53Z" id="f1qdx6LieC"></path><path d="M96.94 83.98C85.57 92.75 54.09 96.15 49.64 92.8C45.19 89.46 51.88 57.25 68.16 44.49C84.44 31.72 122.18 19.09 116.78 46.25C111.37 73.4 108.31 75.21 96.94 83.98Z" id="a4mATgL0Ie"></path><path d="M47.09 91.25L68.53 91.25L68.53 120.5L47.09 120.5L47.09 91.25Z" id="aaoppXoRU"></path></defs><g><g><g><use xlink:href="#f1qdx6LieC" opacity="1" fill="#219019" fill-opacity="1"></use></g><g><use xlink:href="#a4mATgL0Ie" opacity="1" fill="#219019" fill-opacity="1"></use></g><g><use xlink:href="#aaoppXoRU" opacity="1" fill="#219019" fill-opacity="1"></use></g></g></g></svg>